HIERARCHY
ROOT Hips
{
	OFFSET 0.000000 0.000000 0.000000
	CHANNELS 6 Xposition Yposition Zposition Xrotation Yrotation Zrotation
	JOINT LeftUpLeg_virtual
	{
		OFFSET 0.000000 0.000000 0.000000
		CHANNELS 3 Xrotation Yrotation Zrotation
		JOINT LeftUpLeg
		{
			OFFSET 10.205400 -3.823500 0.155100
			CHANNELS 3 Xrotation Yrotation Zrotation
			JOINT LeftLeg
			{
				OFFSET 0.708757 -12.982077 0.567790
				CHANNELS 3 Xrotation Yrotation Zrotation
				JOINT LeftFoot
				{
					OFFSET -0.708756 -10.717838 -2.184338
					CHANNELS 3 Xrotation Yrotation Zrotation
					JOINT LeftToeBase
					{
						OFFSET 0.108149 -7.191104 7.560241
						CHANNELS 3 Xrotation Yrotation Zrotation
						JOINT LeftToe_End
						{
							OFFSET 0.070230 0.081724 4.490308
							CHANNELS 3 Xrotation Yrotation Zrotation
							End Site
							{
								OFFSET 0 0 0
							}
						}
					}
				}
			}
		}
	}
	JOINT RightUpLeg_virtual
	{
		OFFSET 0.000000 0.000000 0.000000
		CHANNELS 3 Xrotation Yrotation Zrotation
		JOINT RightUpLeg
		{
			OFFSET -10.205400 -3.823500 0.005500
			CHANNELS 3 Xrotation Yrotation Zrotation
			JOINT RightLeg
			{
				OFFSET -0.708756 -12.982134 0.610632
				CHANNELS 3 Xrotation Yrotation Zrotation
				JOINT RightFoot
				{
					OFFSET 0.708754 -10.717769 -1.945823
					CHANNELS 3 Xrotation Yrotation Zrotation
					JOINT RightToeBase
					{
						OFFSET -0.108140 -7.191069 7.372968
						CHANNELS 3 Xrotation Yrotation Zrotation
						JOINT RightToe_End
						{
							OFFSET -0.070227 0.081735 4.479403
							CHANNELS 3 Xrotation Yrotation Zrotation
							End Site
							{
								OFFSET 0 0 0
							}
						}
					}
				}
			}
		}
	}
	JOINT Spine_virtual
	{
		OFFSET 0.000000 0.000000 0.000000
		CHANNELS 3 Xrotation Yrotation Zrotation
		JOINT Spine
		{
			OFFSET 0.000000 6.876099 0.125700
			CHANNELS 3 Xrotation Yrotation Zrotation
			JOINT Spine1
			{
				OFFSET 0.000000 5.730043 0.104720
				CHANNELS 3 Xrotation Yrotation Zrotation
				JOINT Spine1_split
				{
					OFFSET 0.000000 5.730043 0.104720
					CHANNELS 3 Xrotation Yrotation Zrotation
					JOINT Spine2
					{
						OFFSET 0.000000 5.730043 0.104720
						CHANNELS 3 Xrotation Yrotation Zrotation
						JOINT Neck_virtual
						{
							OFFSET 0.000000 0.000000 0.000000
							CHANNELS 3 Xrotation Yrotation Zrotation
							JOINT Neck
							{
								OFFSET 0.000000 10.314075 0.188496
								CHANNELS 3 Xrotation Yrotation Zrotation
								JOINT Head
								{
									OFFSET 0.000000 7.643700 -2.377400
									CHANNELS 3 Xrotation Yrotation Zrotation
									JOINT HeadTop_End
									{
										OFFSET 0.000000 43.788605 -13.619600
										CHANNELS 3 Xrotation Yrotation Zrotation
										End Site
										{
											OFFSET 0 0 0
										}
									}
								}
							}
						}
						JOINT LeftShoulder_virtual
						{
							OFFSET 0.000000 0.000000 0.000000
							CHANNELS 3 Xrotation Yrotation Zrotation
							JOINT LeftShoulder
							{
								OFFSET 2.196100 4.412489 0.087492
								CHANNELS 3 Xrotation Yrotation Zrotation
								JOINT LeftShoulder_split
								{
									OFFSET 2.196100 4.412489 0.087492
									CHANNELS 3 Xrotation Yrotation Zrotation
									JOINT LeftArm
									{
										OFFSET 8.771219 -2.981674 -0.026999
										CHANNELS 3 Xrotation Yrotation Zrotation
										JOINT LeftForeArm
										{
											OFFSET 8.512804 0.000000 -0.000000
											CHANNELS 3 Xrotation Yrotation Zrotation
											JOINT LeftHand
											{
												OFFSET 18.484802 0.000000 -0.000000
												CHANNELS 3 Xrotation Yrotation Zrotation
												End Site
												{
													OFFSET 0 0 0
												}
											}
										}
									}
								}
							}
						}
						JOINT RightShoulder_virtual
						{
							OFFSET 0.000000 0.000000 0.000000
							CHANNELS 3 Xrotation Yrotation Zrotation
							JOINT RightShoulder
							{
								OFFSET -2.196100 4.412496 0.070690
								CHANNELS 3 Xrotation Yrotation Zrotation
								JOINT RightShoulder_split
								{
									OFFSET -2.196100 4.412496 0.070690
									CHANNELS 3 Xrotation Yrotation Zrotation
									JOINT RightArm
									{
										OFFSET -8.771282 -2.981682 -0.094208
										CHANNELS 3 Xrotation Yrotation Zrotation
										JOINT RightForeArm
										{
											OFFSET -8.494598 0.000000 0.000000
											CHANNELS 3 Xrotation Yrotation Zrotation
											JOINT RightHand
											{
												OFFSET -18.483803 0.000000 0.000001
												CHANNELS 3 Xrotation Yrotation Zrotation
												End Site
												{
													OFFSET 0 0 0
												}
											}
										}
									}
								}
							}
						}
					}
				}
			}
		}
	}
}
MOTION
Frames: 5
Frame Time: 0.03333333
6.023140 49.217690 -6.890610 0.000000 0.000000 0.000000 -89.586441 -10.317576 -3.098465 16.431393 28.691886 2.962909 0.867864 -16.237089 -8.907905 4.990114 32.006174 -3.883699 10.483856 0.102882 8.147867 0.000000 0.000000 0.000000 -88.669325 -5.966441 0.726466 9.179842 -19.380867 -9.585172 -10.319443 20.063425 -11.381096 13.752348 -29.841366 22.109409 5.120480 -6.391258 -38.450700 0.000000 0.000000 0.000000 -91.832966 -1.357234 3.675274 1.398086 -5.609001 -2.867830 -1.315947 -2.606990 -0.732329 0.020533 0.542005 -0.165359 0.000000 0.000000 0.000000 1.012484 0.770107 0.005395 -7.092918 -24.098509 -13.408156 7.848052 -54.827100 28.507741 0.000000 0.000000 0.000000 -0.263311 0.912095 -1.761933 3.797159 -4.880819 -11.068851 8.088179 -9.371938 1.083825 52.294319 -27.095652 -27.298220 -22.071217 -33.131475 -11.922603 0.000000 0.000000 0.000000 2.065112 -0.633251 -2.626595 -1.367324 -1.218193 7.157077 19.981857 7.180576 6.184060 -8.585827 -1.045117 72.191616 105.673886 78.057751 -97.759494 0.000000 0.000000 0.000000 
6.026604 49.217384 -6.890993 0.000000 0.000000 0.000000 -89.588948 -10.320231 -3.102885 16.431897 28.685353 2.962781 0.867695 -16.247413 -8.908032 4.998068 31.998132 -3.893603 10.479925 0.102883 8.151461 0.000000 0.000000 0.000000 -88.672262 -5.962085 0.732368 9.191572 -19.388528 -9.575976 -10.337408 20.068006 -11.384002 13.727201 -29.846236 22.092213 5.106217 -6.384950 -38.451882 0.000000 0.000000 0.000000 -91.834728 -1.377374 3.658155 1.401618 -5.613643 -2.870519 -1.318144 -2.598738 -0.730912 0.018818 0.544893 -0.167100 0.000000 0.000000 0.000000 1.012893 0.778356 0.003579 -7.085073 -24.102496 -13.396242 7.767996 -54.833947 28.466673 0.000000 0.000000 0.000000 -0.261567 0.917378 -1.759497 3.797002 -4.870528 -11.074781 8.072506 -9.390911 1.091586 52.298127 -27.055858 -27.283681 -22.066499 -33.131369 -11.926525 0.000000 0.000000 0.000000 2.067049 -0.624348 -2.624844 -1.374818 -1.226795 7.133355 19.965625 7.190005 6.220227 -8.583994 -1.009812 72.169630 105.591617 78.062218 -97.674922 0.000000 0.000000 0.000000 
6.030797 49.218735 -6.889683 0.000000 0.000000 0.000000 -89.591154 -10.326797 -3.110433 16.429018 28.684421 2.962806 0.868309 -16.261511 -8.909516 5.007642 31.985069 -3.901514 10.476111 0.102503 8.155196 0.000000 0.000000 0.000000 -88.675861 -5.963286 0.732877 9.195648 -19.403314 -9.561814 -10.357034 20.078547 -11.387778 13.701756 -29.850556 22.062245 5.094462 -6.380643 -38.470364 0.000000 0.000000 0.000000 -91.828635 -1.402872 3.636434 1.413493 -5.619314 -2.873338 -1.317414 -2.585410 -0.730027 0.017580 0.546063 -0.167899 0.000000 0.000000 0.000000 1.017027 0.791647 0.001709 -7.159332 -24.103739 -13.412162 7.557791 -54.817490 28.369385 0.000000 0.000000 0.000000 -0.258271 0.930332 -1.758382 3.798157 -4.837302 -11.080519 8.051541 -9.420499 1.100374 52.276963 -27.004719 -27.283915 -22.055975 -33.149934 -11.931081 0.000000 0.000000 0.000000 2.073225 -0.609238 -2.624994 -1.382246 -1.221069 7.094884 19.956510 7.213435 6.260729 -8.580490 -0.995384 72.168223 105.590428 78.069192 -97.683788 0.000000 0.000000 0.000000 
6.035435 49.221298 -6.887779 0.000000 0.000000 0.000000 -89.591503 -10.335914 -3.120065 16.422693 28.690435 2.964281 0.869598 -16.275789 -8.911553 5.011097 31.969889 -3.902084 10.473863 0.101809 8.157766 0.000000 0.000000 0.000000 -88.678573 -5.970330 0.727300 9.183755 -19.421351 -9.548938 -10.364609 20.101158 -11.389485 13.693678 -29.846721 22.031895 5.084463 -6.379666 -38.501223 0.000000 0.000000 0.000000 -91.815385 -1.430556 3.612323 1.433110 -5.626861 -2.876471 -1.313790 -2.568864 -0.728740 0.017765 0.545018 -0.167248 0.000000 0.000000 0.000000 1.025457 0.808449 0.000350 -7.308385 -24.103726 -13.448187 7.248579 -54.773855 28.232310 0.000000 0.000000 0.000000 -0.252992 0.948912 -1.757841 3.800278 -4.780839 -11.084317 8.034033 -9.460098 1.114867 52.237475 -26.949239 -27.302109 -22.035758 -33.181783 -11.932848 0.000000 0.000000 0.000000 2.083402 -0.589916 -2.626586 -1.389098 -1.203343 7.047434 19.956525 7.241962 6.304603 -8.575446 -1.004996 72.189526 105.661203 78.076575 -97.775954 0.000000 0.000000 0.000000 
6.040130 49.224419 -6.885906 0.000000 0.000000 0.000000 -89.590901 -10.347246 -3.133349 16.411194 28.704287 2.969254 0.871794 -16.290705 -8.914189 5.007422 31.952602 -3.898601 10.471010 0.100972 8.160106 0.000000 0.000000 0.000000 -88.677657 -5.980786 0.716529 9.155643 -19.439268 -9.542027 -10.353272 20.142858 -11.386170 13.711332 -29.828426 22.009274 5.072374 -6.381857 -38.539571 0.000000 0.000000 0.000000 -91.796568 -1.458412 3.585825 1.459718 -5.637213 -2.879884 -1.307907 -2.550235 -0.726581 0.018933 0.544036 -0.165390 0.000000 0.000000 0.000000 1.037365 0.827378 0.000067 -7.518607 -24.105341 -13.492011 6.871437 -54.693897 28.067027 0.000000 0.000000 0.000000 -0.245048 0.970836 -1.757031 3.803228 -4.702614 -11.084968 8.024040 -9.508986 1.130223 52.187109 -26.896841 -27.334962 -22.000439 -33.217471 -11.927877 0.000000 0.000000 0.000000 2.094919 -0.568669 -2.628719 -1.395446 -1.177050 6.997519 19.963349 7.261165 6.356986 -8.570138 -1.035028 72.232365 105.783204 78.082709 -97.928192 0.000000 0.000000 0.000000 
